<svg width="54" height="53" viewBox="0 0 54 53" fill="none" xmlns="http://www.w3.org/2000/svg">
<circle cx="27.1424" cy="26.2674" r="26.1658" fill="#FFECBB"/>
<path d="M23.587 25.291C24.6248 27.4341 26.3577 29.1625 28.5034 30.1948C28.6617 30.2698 28.8368 30.3022 29.0114 30.2889C29.186 30.2757 29.3542 30.2172 29.4993 30.1192L32.6508 28.0139C32.7901 27.9195 32.951 27.8619 33.1185 27.8464C33.2861 27.831 33.4548 27.8583 33.6089 27.9257L39.5086 30.4595C39.7102 30.5435 39.8787 30.6913 39.988 30.8804C40.0974 31.0695 40.1415 31.2892 40.1137 31.5058C39.9267 32.9653 39.2143 34.3066 38.1099 35.2788C37.0054 36.2511 35.5846 36.7875 34.1132 36.7878C29.5662 36.7878 25.2054 34.9816 21.9902 31.7664C18.775 28.5512 16.9688 24.1904 16.9688 19.6434C16.9691 18.172 17.5055 16.7512 18.4777 15.6467C19.4499 14.5422 20.7913 13.8299 22.2507 13.6429C22.4674 13.6151 22.6871 13.6592 22.8762 13.7686C23.0653 13.8779 23.2131 14.0463 23.2971 14.248L25.8309 20.1603C25.8968 20.312 25.9244 20.4776 25.9112 20.6425C25.898 20.8073 25.8444 20.9664 25.7553 21.1057L23.65 24.3077C23.5563 24.4525 23.5013 24.619 23.4903 24.7911C23.4792 24.9633 23.5125 25.1354 23.587 25.291V25.291Z" stroke="#DEAA27" stroke-width="2" stroke-linecap="round" stroke-linejoin="round"/>
</svg>
