<svg width="54" height="53" viewBox="0 0 54 53" fill="none" xmlns="http://www.w3.org/2000/svg">
<circle cx="27.1424" cy="26.7869" r="26.1658" fill="#EAEAEA"/>
<path d="M26.7269 27.7526C28.7658 27.7526 30.4187 26.0998 30.4187 24.0609C30.4187 22.022 28.7658 20.3691 26.7269 20.3691C24.688 20.3691 23.0352 22.022 23.0352 24.0609C23.0352 26.0998 24.688 27.7526 26.7269 27.7526Z" stroke="#181818" stroke-width="2" stroke-linecap="round" stroke-linejoin="round"/>
<path d="M35.9549 24.0614C35.9549 32.3679 26.7255 38.8284 26.7255 38.8284C26.7255 38.8284 17.4961 32.3679 17.4961 24.0614C17.4961 21.6136 18.4685 19.2661 20.1993 17.5353C21.9302 15.8044 24.2777 14.832 26.7255 14.832C29.1733 14.832 31.5208 15.8044 33.2516 17.5353C34.9825 19.2661 35.9549 21.6136 35.9549 24.0614V24.0614Z" stroke="#181818" stroke-width="2" stroke-linecap="round" stroke-linejoin="round"/>
</svg>
